<svg width="40" height="40" viewBox="0 0 40 40" fill="none" xmlns="http://www.w3.org/2000/svg">
<path fill-rule="evenodd" clip-rule="evenodd" d="M25.8688 9.34148C26.0633 9.48735 26.2057 9.69194 26.2749 9.92499L29.7772 21.8326C30.1189 21.7783 30.4665 21.7505 30.8169 21.7505C32.574 21.7505 34.2591 22.4485 35.5015 23.6909C36.7439 24.9333 37.4419 26.6184 37.4419 28.3755C37.4419 30.1325 36.7439 31.8176 35.5015 33.0601C34.2591 34.3025 32.574 35.0005 30.8169 35.0005C29.0599 35.0005 27.3748 34.3025 26.1323 33.0601C24.8899 31.8176 24.1919 30.1325 24.1919 28.3755C24.1919 26.6184 24.8899 24.9333 26.1323 23.6909C26.7059 23.1173 27.3739 22.6597 28.0997 22.3333L26.9924 18.5775L22.0803 26.2037C22.3154 26.5914 22.4426 27.0391 22.4426 27.5C22.4426 28.163 22.1792 28.7989 21.7104 29.2678C21.2416 29.7366 20.6057 30 19.9426 30C19.2796 30 18.6437 29.7366 18.1749 29.2678C17.706 28.7989 17.4426 28.163 17.4426 27.5C17.4426 27.0032 17.5905 26.5217 17.8618 26.1142L14.4149 20.045L12.8994 22.971C13.2015 23.1852 13.4869 23.4256 13.7522 23.6909C14.9946 24.9333 15.6926 26.6184 15.6926 28.3755C15.6926 30.1325 14.9946 31.8176 13.7522 33.0601C12.5098 34.3025 10.8247 35.0005 9.06763 35.0005C7.31057 35.0005 5.62547 34.3025 4.38304 33.0601C3.14062 31.8176 2.44263 30.1325 2.44263 28.3755C2.44263 26.6184 3.14062 24.9333 4.38304 23.6909C5.62547 22.4485 7.31057 21.7505 9.06763 21.7505C9.85666 21.7505 10.6312 21.8912 11.3576 22.1588L13.3899 18.2375L12.0824 15.9375H10.8774C10.6288 15.9375 10.3903 15.8387 10.2145 15.6629C10.0387 15.4871 9.93995 15.2486 9.93995 15C9.93995 14.7514 10.0387 14.5129 10.2145 14.3371C10.3903 14.1613 10.6288 14.0625 10.8774 14.0625H14.8774C15.1261 14.0625 15.3645 14.1613 15.5404 14.3371C15.7162 14.5129 15.8149 14.7514 15.8149 15C15.8149 15.2486 15.7162 15.4871 15.5404 15.6629C15.3645 15.8387 15.1261 15.9375 14.8774 15.9375H14.0949L14.9874 17.51L26.3074 16.2525L24.7449 10.9525L24.7199 10.865H19.8449V9.11499H25.1949C25.4381 9.1162 25.6743 9.19561 25.8688 9.34148ZM10.4856 23.8414C10.0376 23.7011 9.56133 23.6255 9.06763 23.6255C6.44763 23.6255 4.31763 25.7555 4.31763 28.3755C4.31763 30.9955 6.44763 33.1255 9.06763 33.1255C11.6876 33.1255 13.8176 30.9955 13.8176 28.3755C13.8176 26.8726 13.1168 25.531 12.0246 24.6601L10.0124 28.545C9.90255 28.7437 9.71952 28.8917 9.50225 28.9576C9.28498 29.0235 9.05057 29.0021 8.8488 28.898C8.64704 28.7939 8.49382 28.6152 8.42168 28.3999C8.34954 28.1846 8.36416 27.9497 8.46245 27.745L10.4856 23.8414ZM29.8499 28.27L28.6369 24.1556C27.1113 24.9466 26.0669 26.5409 26.0669 28.3755C26.0669 30.9955 28.1969 33.1255 30.8169 33.1255C33.4369 33.1255 35.5669 30.9955 35.5669 28.3755C35.5669 25.7555 33.4369 23.6255 30.8169 23.6255C30.6465 23.6255 30.4781 23.6345 30.3123 23.6521L31.5249 27.775C31.5659 27.8873 31.5834 28.0067 31.5764 28.126C31.5694 28.2453 31.538 28.3619 31.4842 28.4686C31.4304 28.5753 31.3553 28.6698 31.2636 28.7464C31.1719 28.823 31.0654 28.8799 30.9509 28.9138C30.8363 28.9477 30.7159 28.9577 30.5973 28.9433C30.4787 28.9289 30.3643 28.8903 30.2612 28.83C30.158 28.7697 30.0683 28.6889 29.9976 28.5926C29.9269 28.4962 29.8766 28.3865 29.8499 28.27ZM19.2873 25.0874C19.4991 25.0299 19.7193 25 19.9426 25C20.201 25 20.4552 25.04 20.697 25.1165L25.1974 18.1375L15.9274 19.1675L19.2873 25.0874ZM20.5613 26.8813C20.3972 26.7172 20.1747 26.625 19.9426 26.625C19.7106 26.625 19.488 26.7172 19.3239 26.8813C19.1598 27.0454 19.0676 27.2679 19.0676 27.5C19.0676 27.7321 19.1598 27.9546 19.3239 28.1187C19.488 28.2828 19.7106 28.375 19.9426 28.375C20.1747 28.375 20.3972 28.2828 20.5613 28.1187C20.7254 27.9546 20.8176 27.7321 20.8176 27.5C20.8176 27.2679 20.7254 27.0454 20.5613 26.8813Z" fill="black"/>
</svg>
