<svg width="40" height="40" viewBox="0 0 40 40" fill="none" xmlns="http://www.w3.org/2000/svg">
<path d="M30.3903 5.75714L22.4529 7.749C22.5077 7.17671 22.3952 6.59946 22.0703 6.11714L29.9803 4.12964L30.3903 5.75714Z" fill="black"/>
<path d="M19.9998 5.99976C20.3983 6.00009 20.7804 6.1587 21.0619 6.44071C21.3434 6.72272 21.5014 7.10502 21.5011 7.50351C21.5008 7.90199 21.3421 8.28403 21.0601 8.56557C20.7781 8.84711 20.3958 9.00509 19.9973 9.00476C19.8 9.00459 19.6047 8.96557 19.4225 8.88991C19.2402 8.81425 19.0747 8.70344 18.9353 8.5638C18.6537 8.28179 18.4958 7.89949 18.4961 7.50101C18.4964 7.10252 18.655 6.72048 18.9371 6.43894C19.2191 6.15741 19.6014 5.99942 19.9998 5.99976Z" fill="black"/>
<path fill-rule="evenodd" clip-rule="evenodd" d="M30.1552 18.1824C30.1111 17.9893 30.0027 17.8169 29.8479 17.6934C29.693 17.5699 29.5008 17.5026 29.3027 17.5024H10.6977C10.4997 17.5026 10.3075 17.5699 10.1526 17.6934C9.99776 17.8169 9.88939 17.9893 9.84525 18.1824L7.52275 28.4524C7.49192 28.6036 7.49243 28.7594 7.52425 28.9104C7.55607 29.0613 7.61853 29.2041 7.70775 29.3299L9.73775 32.1374C9.81868 32.2494 9.92498 32.3407 10.048 32.4037C10.1709 32.4667 10.3071 32.4997 10.4452 32.4999H29.5552C29.6934 32.4997 29.8296 32.4667 29.9525 32.4037C30.0755 32.3407 30.1818 32.2494 30.2627 32.1374L32.2927 29.3299C32.3816 29.2044 32.4439 29.062 32.4757 28.9116C32.5075 28.7611 32.5082 28.6057 32.4777 28.4549L30.1552 18.1824ZM14.5727 25.4124C14.5727 25.6445 14.4806 25.8671 14.3165 26.0312C14.1524 26.1953 13.9298 26.2874 13.6977 26.2874H11.0727C10.9419 26.2875 10.8127 26.2582 10.6947 26.2017C10.5766 26.1452 10.4728 26.063 10.3907 25.961C10.3087 25.8591 10.2506 25.74 10.2206 25.6126C10.1907 25.4852 10.1897 25.3528 10.2177 25.2249L10.9927 21.7249C11.0348 21.5304 11.142 21.356 11.2965 21.2306C11.451 21.1051 11.6437 21.0361 11.8427 21.0349H13.6977C13.9298 21.0349 14.1524 21.1271 14.3165 21.2912C14.4806 21.4553 14.5727 21.6779 14.5727 21.9099V25.4124ZM23.6802 25.4124C23.6802 25.6445 23.5881 25.8671 23.424 26.0312C23.2599 26.1953 23.0373 26.2874 22.8052 26.2874H17.5552C17.3232 26.2874 17.1006 26.1953 16.9365 26.0312C16.7724 25.8671 16.6802 25.6445 16.6802 25.4124V21.9124C16.6802 21.6804 16.7724 21.4578 16.9365 21.2937C17.1006 21.1296 17.3232 21.0374 17.5552 21.0374H22.8052C23.0373 21.0374 23.2599 21.1296 23.424 21.2937C23.5881 21.4578 23.6802 21.6804 23.6802 21.9124V25.4124ZM29.6102 25.9624C29.5283 26.0646 29.4244 26.1471 29.3062 26.2038C29.1881 26.2605 29.0588 26.2899 28.9277 26.2899H26.3027C26.0707 26.2899 25.8481 26.1978 25.684 26.0337C25.5199 25.8696 25.4277 25.647 25.4277 25.4149V21.9099C25.4277 21.6779 25.5199 21.4553 25.684 21.2912C25.8481 21.1271 26.0707 21.0349 26.3027 21.0349H28.1552C28.3548 21.0349 28.5484 21.103 28.7039 21.228C28.8594 21.3531 28.9675 21.5275 29.0102 21.7224L29.7827 25.2224C29.8111 25.3504 29.8103 25.4832 29.7804 25.6108C29.7506 25.7385 29.6924 25.8578 29.6102 25.9599V25.9624Z" fill="black"/>
<path d="M17.5506 7.24976L9.61058 9.24976L10.0206 10.8748L17.9306 8.88976C17.6168 8.40403 17.4824 7.824 17.5506 7.24976Z" fill="black"/>
<path d="M20.8397 9.83163V13.3241L20.8372 13.3266H23.7372V15.0016H16.2622V13.3241H19.1597V9.82913C19.4247 9.92413 19.7022 9.99913 19.9997 9.99913C20.2972 9.99913 20.5747 9.92413 20.8397 9.83163Z" fill="black"/>
</svg>
