<svg width="40" height="40" viewBox="0 0 40 40" fill="none" xmlns="http://www.w3.org/2000/svg">
<path fill-rule="evenodd" clip-rule="evenodd" d="M35.005 18H35L32.27 9.6575C31.85 8.375 30.5575 7.5 29.09 7.5H10.92C9.4525 7.5 8.16 8.375 7.74 9.655L5 18H4.995C4.33328 18 3.69867 18.2629 3.23077 18.7308C2.76287 19.1987 2.5 19.8333 2.5 20.495V29.2525C2.5 29.9425 3.0575 30.5 3.7475 30.5H5V32.1675C5 32.8968 5.28973 33.5963 5.80546 34.112C6.32118 34.6278 7.02065 34.9175 7.75 34.9175C8.47935 34.9175 9.17882 34.6278 9.69454 34.112C10.2103 33.5963 10.5 32.8968 10.5 32.1675V30.5H29.5V32.1675C29.5 32.8968 29.7897 33.5963 30.3055 34.112C30.8212 34.6278 31.5207 34.9175 32.25 34.9175C32.9793 34.9175 33.6788 34.6278 34.1945 34.112C34.7103 33.5963 35 32.8968 35 32.1675V30.5H36.2525C36.4163 30.5 36.5785 30.4677 36.7299 30.405C36.8812 30.3423 37.0188 30.2505 37.1346 30.1346C37.2505 30.0188 37.3423 29.8813 37.405 29.7299C37.4677 29.5785 37.5 29.4163 37.5 29.2525V20.495C37.5 19.8333 37.2371 19.1987 36.7692 18.7308C36.3013 18.2629 35.6667 18 35.005 18ZM8.175 17.8325L10.275 10.985C10.3631 10.7288 10.5306 10.5072 10.7531 10.3526C10.9756 10.198 11.2416 10.1182 11.5125 10.125H28.4875C29.0625 10.125 29.565 10.475 29.7225 10.985L31.8225 17.835C31.8475 17.9175 31.7825 18 31.6875 18H8.3125C8.2175 18 8.15 17.9175 8.175 17.8325ZM7 20.5C8.1 20.505 8.9975 21.4 9 22.51C8.99802 22.9051 8.87905 23.2908 8.65809 23.6184C8.43713 23.946 8.12408 24.2008 7.75846 24.3506C7.39284 24.5005 6.99103 24.5386 6.60373 24.4603C6.21642 24.382 5.86099 24.1908 5.58229 23.9107C5.30358 23.6306 5.11409 23.2742 5.03773 22.8865C4.96137 22.4988 5.00155 22.0972 5.15322 21.7323C5.30488 21.3675 5.56123 21.0557 5.88991 20.8364C6.21858 20.6171 6.60486 20.5 7 20.5ZM33 24.5C32.7374 24.5 32.4773 24.4483 32.2346 24.3478C31.992 24.2472 31.7715 24.0999 31.5858 23.9142C31.4001 23.7285 31.2528 23.508 31.1522 23.2654C31.0517 23.0227 31 22.7626 31 22.5C31 22.2374 31.0517 21.9773 31.1522 21.7346C31.2528 21.492 31.4001 21.2715 31.5858 21.0858C31.7715 20.9001 31.992 20.7528 32.2346 20.6522C32.4773 20.5517 32.7374 20.5 33 20.5C33.5304 20.5 34.0391 20.7107 34.4142 21.0858C34.7893 21.4609 35 21.9696 35 22.5C35 23.0304 34.7893 23.5391 34.4142 23.9142C34.0391 24.2893 33.5304 24.5 33 24.5Z" fill="black"/>
</svg>
