<svg width="40" height="40" viewBox="0 0 40 40" fill="none" xmlns="http://www.w3.org/2000/svg">
<path fill-rule="evenodd" clip-rule="evenodd" d="M27.8875 8.8875L29.645 14.25C30.0707 14.25 30.4789 14.4191 30.7799 14.7201C31.0809 15.0211 31.25 15.4293 31.25 15.855V21.485C31.25 21.5903 31.2292 21.6945 31.1889 21.7917C31.1485 21.8889 31.0894 21.9773 31.0148 22.0516C30.9403 22.1259 30.8518 22.1848 30.7544 22.2248C30.6571 22.2649 30.5528 22.2853 30.4475 22.285H29.6425V23.3575C29.6425 23.8263 29.4563 24.2758 29.1248 24.6073C28.7933 24.9388 28.3438 25.125 27.875 25.125C27.4062 25.125 26.9567 24.9388 26.6252 24.6073C26.2937 24.2758 26.1075 23.8263 26.1075 23.3575V22.285H13.8925V23.3575C13.8925 23.8263 13.7063 24.2758 13.3748 24.6073C13.0433 24.9388 12.5938 25.125 12.125 25.125C11.6562 25.125 11.2067 24.9388 10.8752 24.6073C10.5437 24.2758 10.3575 23.8263 10.3575 23.3575V22.285H9.55C9.11 22.285 8.75 21.9275 8.75 21.485V15.855C8.75 15.4293 8.9191 15.0211 9.22009 14.7201C9.52109 14.4191 9.92933 14.25 10.355 14.25H10.3575L12.12 8.885C12.3875 8.0625 13.22 7.5 14.1625 7.5H25.8425C26.7875 7.5 27.6175 8.0625 27.8875 8.8875ZM13.75 9.7425L12.4 14.1425C12.385 14.1975 12.4275 14.25 12.49 14.25H27.515C27.5775 14.25 27.62 14.1975 27.6025 14.1425L26.2525 9.74C26.1525 9.4125 25.8275 9.1875 25.4575 9.1875H14.5475C14.175 9.1875 13.8525 9.4125 13.75 9.7425ZM12.1618 15.9313C11.9964 15.8717 11.8205 15.8465 11.645 15.8575C11.3181 15.8779 11.0112 16.0222 10.7869 16.2609C10.5626 16.4997 10.4377 16.8149 10.4377 17.1425C10.4377 17.4701 10.5626 17.7853 10.7869 18.0241C11.0112 18.2628 11.3181 18.4071 11.645 18.4275C11.8205 18.4385 11.9964 18.4133 12.1618 18.3537C12.3272 18.2941 12.4786 18.2012 12.6068 18.0808C12.7349 17.9604 12.8371 17.8151 12.9069 17.6537C12.9767 17.4923 13.0127 17.3183 13.0127 17.1425C13.0127 16.9667 12.9767 16.7927 12.9069 16.6313C12.8371 16.4699 12.7349 16.3246 12.6068 16.2042C12.4786 16.0838 12.3272 15.9909 12.1618 15.9313ZM27.8432 18.3537C28.0086 18.4133 28.1845 18.4385 28.36 18.4275C28.6869 18.4071 28.9938 18.2628 29.2181 18.0241C29.4424 17.7853 29.5673 17.4701 29.5673 17.1425C29.5673 16.8149 29.4424 16.4997 29.2181 16.2609C28.9938 16.0222 28.6869 15.8779 28.36 15.8575C28.1845 15.8465 28.0086 15.8717 27.8432 15.9313C27.6778 15.9909 27.5264 16.0838 27.3982 16.2042C27.2701 16.3246 27.1679 16.4699 27.0981 16.6313C27.0283 16.7927 26.9923 16.9667 26.9923 17.1425C26.9923 17.3183 27.0283 17.4923 27.0981 17.6537C27.1679 17.8151 27.2701 17.9604 27.3982 18.0808C27.5264 18.2012 27.6778 18.2941 27.8432 18.3537Z" fill="black"/>
<path d="M5.9325 30.6653C5.5775 30.6653 5.2725 30.6853 5 30.7228V28.2078C5.30999 28.1789 5.62117 28.1647 5.9325 28.1653C7.99 28.1653 9.065 28.7278 10.01 29.2253C10.3265 29.3965 10.6539 29.5468 10.99 29.6753C11.2613 29.7797 11.4769 29.8283 11.6775 29.8735C11.7171 29.8824 11.7562 29.8912 11.795 29.9003C12.115 29.9703 12.4825 30.0003 12.93 30.0003C14.3717 30.0003 15.022 29.6594 15.8443 29.2283L15.85 29.2253C16.7975 28.7278 17.8725 28.1653 19.93 28.1653C21.9875 28.1653 23.0625 28.7278 24.01 29.2253L24.0157 29.2283C24.838 29.6594 25.4883 30.0003 26.93 30.0003C28.3717 30.0003 29.022 29.6594 29.8443 29.2283L29.85 29.2253C30.8 28.7278 31.875 28.1653 33.9325 28.1653C34.2897 28.1656 34.6465 28.1915 35 28.2428V30.7753C34.6575 30.7053 34.295 30.6628 33.9325 30.6628C32.4908 30.6628 31.8405 31.0037 31.0182 31.4348L31.0071 31.4406C30.0584 31.9374 28.9836 32.5003 26.93 32.5003C24.8725 32.5003 23.7975 31.9378 22.8475 31.4378L22.8461 31.4371C22.0218 31.0049 21.3692 30.6628 19.93 30.6628C18.4908 30.6628 17.8382 31.0049 17.0139 31.4371L17.011 31.4386C16.0639 31.9359 14.9889 32.5003 12.93 32.5003C12.2034 32.5003 11.549 32.3931 11.4216 32.3722C11.417 32.3714 11.4132 32.3708 11.41 32.3703C11.095 32.3153 10.8025 32.2528 10.54 32.1703C10.0117 32.0066 9.6149 31.82 9.48452 31.7586C9.4656 31.7497 9.45229 31.7435 9.445 31.7403C9.22445 31.6395 9.14126 31.5952 9.003 31.5214C8.95946 31.4982 8.91047 31.472 8.85 31.4403C8.025 31.0053 7.3725 30.6653 5.9325 30.6653Z" fill="black"/>
</svg>
