<svg width="40" height="40" viewBox="0 0 40 40" fill="none" xmlns="http://www.w3.org/2000/svg">
<path fill-rule="evenodd" clip-rule="evenodd" d="M34.8481 12.6919C35.003 12.8159 35.1112 12.9889 35.1549 13.1825V13.18L37.4774 23.45C37.5082 23.6011 37.5077 23.757 37.4758 23.9079C37.444 24.0589 37.3816 24.2017 37.2924 24.3275L35.2624 27.135C35.1812 27.2473 35.0745 27.3388 34.951 27.4018C34.8276 27.4648 34.6909 27.4976 34.5524 27.4975H5.44485C5.30668 27.4972 5.17053 27.4642 5.04756 27.4012C4.92459 27.3382 4.81828 27.247 4.73735 27.135L2.70735 24.325C2.61847 24.1995 2.5562 24.0571 2.52439 23.9066C2.49257 23.7561 2.49188 23.6008 2.52235 23.45L4.84485 13.1825C4.88851 12.9889 4.99666 12.8159 5.15156 12.6919C5.30647 12.5679 5.49892 12.5002 5.69735 12.5H34.3024C34.5008 12.5002 34.6932 12.5679 34.8481 12.6919ZM9.30825 20.7923C9.35222 20.6862 9.37485 20.5724 9.37485 20.4575V16.955C9.37485 16.8401 9.35222 16.7263 9.30825 16.6202C9.26427 16.514 9.19982 16.4175 9.11857 16.3363C9.03732 16.255 8.94086 16.1906 8.8347 16.1466C8.72854 16.1026 8.61476 16.08 8.49985 16.08H6.64485C6.44616 16.0811 6.25375 16.1497 6.09927 16.2747C5.94479 16.3996 5.83743 16.5734 5.79485 16.7675L5.01985 20.2675C4.99138 20.3955 4.99204 20.5282 5.02178 20.6559C5.05151 20.7836 5.10957 20.903 5.19165 21.0053C5.27374 21.1075 5.37775 21.19 5.49601 21.2467C5.61426 21.3033 5.74373 21.3326 5.87485 21.3325H8.49985C8.61476 21.3325 8.72854 21.3099 8.8347 21.2659C8.94086 21.2219 9.03732 21.1575 9.11857 21.0762C9.19982 20.995 9.26427 20.8985 9.30825 20.7923ZM17.8686 21.0762C18.0327 20.9121 18.1249 20.6896 18.1249 20.4575L18.1224 20.4525V16.9525C18.1224 16.7204 18.0302 16.4979 17.8661 16.3338C17.702 16.1697 17.4794 16.0775 17.2474 16.0775H11.9974C11.7653 16.0775 11.5427 16.1697 11.3786 16.3338C11.2145 16.4979 11.1224 16.7204 11.1224 16.9525V20.4575C11.1224 20.6896 11.2145 20.9121 11.3786 21.0762C11.5427 21.2403 11.7653 21.3325 11.9974 21.3325H17.2499C17.4819 21.3325 17.7045 21.2403 17.8686 21.0762ZM26.6436 21.0762C26.8077 20.9121 26.8999 20.6896 26.8999 20.4575V16.9525C26.8999 16.7204 26.8077 16.4979 26.6436 16.3338C26.4795 16.1697 26.2569 16.0775 26.0249 16.0775H20.7749C20.5428 16.0775 20.3202 16.1697 20.1561 16.3338C19.992 16.4979 19.8999 16.7204 19.8999 16.9525V20.4575C19.8999 20.6896 19.992 20.9121 20.1561 21.0762C20.3202 21.2403 20.5428 21.3325 20.7749 21.3325H26.0249C26.2569 21.3325 26.4795 21.2403 26.6436 21.0762ZM34.2795 21.2458C34.3971 21.1892 34.5006 21.1069 34.5824 21.005H34.5799C34.6629 20.9033 34.7218 20.7841 34.7522 20.6564C34.7825 20.5286 34.7834 20.3957 34.7549 20.2675L33.9824 16.7675C33.9396 16.5726 33.8315 16.3981 33.676 16.2731C33.5205 16.1481 33.3269 16.0799 33.1274 16.08H29.5249C29.2928 16.08 29.0702 16.1722 28.9061 16.3363C28.742 16.5004 28.6499 16.7229 28.6499 16.955V20.4575C28.6499 20.6896 28.742 20.9121 28.9061 21.0762C29.0702 21.2403 29.2928 21.3325 29.5249 21.3325H33.9024C34.033 21.3321 34.1618 21.3025 34.2795 21.2458Z" fill="black"/>
<path d="M35 30H5V32.5H35V30Z" fill="black"/>
</svg>
