<svg width="40" height="40" viewBox="0 0 40 40" fill="none" xmlns="http://www.w3.org/2000/svg">
<path fill-rule="evenodd" clip-rule="evenodd" d="M37.5 10V11.675H24.6V14.495H26.5C31.185 14.495 35 18.3075 35 22.995V25.875C35 26.306 34.8288 26.7193 34.524 27.024C34.2193 27.3288 33.806 27.5 33.375 27.5H21.625C20.7275 27.5 20 26.7725 20 25.875V23.6875L2.9625 20.81C2.84058 20.789 2.72985 20.726 2.64949 20.632C2.56913 20.5379 2.52421 20.4187 2.5225 20.295L2.5 15.5275C2.5 15.3876 2.55558 15.2534 2.6545 15.1545C2.75343 15.0556 2.8876 15 3.0275 15H5.1075C5.21662 14.9988 5.32341 15.0316 5.41302 15.0939C5.50264 15.1561 5.57061 15.2448 5.6075 15.3475L6.395 17.505H20V16.12C20 15.689 20.1712 15.2757 20.476 14.971C20.7807 14.6662 21.194 14.495 21.625 14.495H22.925V11.6775H10V10H37.5ZM25.905 17.04V20.4425C25.905 20.5149 25.9193 20.5867 25.9471 20.6536C25.9749 20.7204 26.0156 20.7812 26.067 20.8323C26.1183 20.8834 26.1792 20.9239 26.2463 20.9514C26.3133 20.9788 26.3851 20.9928 26.4575 20.9925C28.7633 20.9886 30.3264 20.9908 31.1286 20.992C31.3493 20.9923 31.5123 20.9925 31.6175 20.9925C31.9325 20.9925 32.0675 20.9075 32.1425 20.78C32.1975 20.675 32.2075 20.5625 32.1725 20.355C31.85 18.215 30 16.565 27.7725 16.565H26.4575C26.3246 16.5677 26.1967 16.6166 26.0959 16.7033C25.9951 16.7899 25.9276 16.909 25.905 17.04Z" fill="black"/>
<path d="M32.5 29.9976H22.5V32.4976H32.5V29.9976Z" fill="black"/>
</svg>
