<svg width="40" height="40" viewBox="0 0 40 40" fill="none" xmlns="http://www.w3.org/2000/svg">
<path fill-rule="evenodd" clip-rule="evenodd" d="M31.2501 27.5C31.2026 27.5 31.1601 27.5125 31.1126 27.5125L25.5526 8.3125C25.485 8.07876 25.3434 7.87324 25.1492 7.72675C24.9549 7.58026 24.7184 7.5007 24.4751 7.5H18.7501V9.5H23.6251C23.6796 9.49946 23.7328 9.51675 23.7766 9.54925C23.8204 9.58174 23.8523 9.62766 23.8676 9.68L27.6926 22.8825C27.7042 22.9224 27.7057 22.9645 27.697 23.0051C27.6883 23.0457 27.6696 23.0834 27.6426 23.115L21.6476 30.1625C21.6241 30.1899 21.595 30.212 21.5622 30.2271C21.5294 30.2422 21.4937 30.25 21.4576 30.25H12.3501C12.1127 29.3731 11.5642 28.6125 10.8071 28.1104C10.05 27.6083 9.136 27.3989 8.2358 27.5214C7.33561 27.6439 6.51077 28.0898 5.91532 28.776C5.31988 29.4621 4.99454 30.3415 5.00007 31.25C4.99454 32.1585 5.31988 33.0379 5.91532 33.724C6.51077 34.4102 7.33561 34.8561 8.2358 34.9786C9.136 35.1011 10.05 34.8917 10.8071 34.3896C11.5642 33.8875 12.1127 33.1269 12.3501 32.25H21.9751C22.1383 32.2499 22.2995 32.2143 22.4476 32.1457C22.5957 32.077 22.727 31.977 22.8326 31.8525L28.3926 25.315L29.2026 28.115C28.1776 28.7825 27.4976 29.935 27.4976 31.25C27.4976 31.9917 27.7175 32.7167 28.1296 33.3334C28.5416 33.9501 29.1273 34.4307 29.8125 34.7145C30.4977 34.9984 31.2517 35.0726 31.9792 34.9279C32.7066 34.7832 33.3748 34.4261 33.8992 33.9017C34.4237 33.3772 34.7808 32.709 34.9255 31.9816C35.0702 31.2542 34.9959 30.5002 34.7121 29.8149C34.4283 29.1297 33.9476 28.544 33.331 28.132C32.7143 27.7199 31.9893 27.5 31.2476 27.5H31.2501ZM8.75007 33C8.51993 32.9997 8.2921 32.954 8.07961 32.8656C7.86711 32.7773 7.6741 32.6479 7.5116 32.4849C7.34909 32.322 7.22028 32.1286 7.13251 31.9158C7.04475 31.7031 6.99974 31.4751 7.00007 31.245C7.0004 31.0149 7.04605 30.787 7.13443 30.5745C7.2228 30.362 7.35217 30.169 7.51513 30.0065C7.6781 29.844 7.87148 29.7152 8.08423 29.6274C8.29698 29.5397 8.52493 29.4947 8.75507 29.495C9.21986 29.4957 9.66535 29.6809 9.99354 30.0101C10.3217 30.3392 10.5057 30.7852 10.5051 31.25C10.5044 31.7148 10.3191 32.1603 9.99001 32.4885C9.66088 32.8167 9.21486 33.0007 8.75007 33ZM31.2501 33C31.0199 32.9997 30.7921 32.954 30.5796 32.8656C30.3671 32.7773 30.1741 32.6479 30.0116 32.4849C29.8491 32.322 29.7203 32.1286 29.6325 31.9158C29.5447 31.7031 29.4997 31.4751 29.5001 31.245C29.5004 31.0149 29.5461 30.787 29.6344 30.5745C29.7228 30.362 29.8522 30.169 30.0151 30.0065C30.1781 29.844 30.3715 29.7152 30.5842 29.6274C30.797 29.5397 31.0249 29.4947 31.2551 29.495C31.7199 29.4957 32.1654 29.6809 32.4935 30.0101C32.8217 30.3392 33.0057 30.7852 33.0051 31.25C33.0044 31.7148 32.8191 32.1603 32.49 32.4885C32.1609 32.8167 31.7149 33.0007 31.2501 33Z" fill="black"/>
</svg>
