<svg width="40" height="40" viewBox="0 0 40 40" fill="none" xmlns="http://www.w3.org/2000/svg">
<path fill-rule="evenodd" clip-rule="evenodd" d="M34.9952 18.083H34.9902L32.2602 9.74051C31.8402 8.46051 30.5477 7.58301 29.0802 7.58301H23.7502V6.32801C23.7502 5.99781 23.6191 5.68114 23.3856 5.44766C23.1521 5.21418 22.8354 5.08301 22.5052 5.08301H17.4927C17.163 5.08367 16.8469 5.21513 16.614 5.44854C16.3811 5.68195 16.2502 5.99825 16.2502 6.32801V7.58301H10.9102C9.44274 7.58301 8.15024 8.45801 7.73024 9.73801L4.99024 18.083H4.98524C4.65738 18.083 4.33273 18.1476 4.02986 18.2732C3.72699 18.3987 3.45183 18.5827 3.22012 18.8147C2.9884 19.0466 2.80468 19.322 2.67944 19.6249C2.5542 19.9279 2.48991 20.2527 2.49024 20.5805V29.338C2.49024 30.0255 3.04774 30.583 3.73774 30.583H4.99024V32.2505C4.99024 32.9799 5.27997 33.6793 5.79569 34.1951C6.31142 34.7108 7.01089 35.0005 7.74024 35.0005C8.46958 35.0005 9.16905 34.7108 9.68478 34.1951C10.2005 33.6793 10.4902 32.9799 10.4902 32.2505V30.583H29.4902V32.2505C29.4902 32.9799 29.78 33.6793 30.2957 34.1951C30.8114 34.7108 31.5109 35.0005 32.2402 35.0005C32.9696 35.0005 33.6691 34.7108 34.1848 34.1951C34.7005 33.6793 34.9902 32.9799 34.9902 32.2505V30.583H36.2427C36.4066 30.5833 36.5688 30.5514 36.7203 30.489C36.8718 30.4266 37.0095 30.335 37.1256 30.2194C37.2417 30.1038 37.3338 29.9664 37.3968 29.8152C37.4598 29.664 37.4924 29.5018 37.4927 29.338V20.5805C37.4931 20.2522 37.4286 19.9271 37.3031 19.6238C37.1775 19.3205 36.9933 19.0449 36.7611 18.8129C36.5288 18.5809 36.2531 18.397 35.9496 18.2717C35.6462 18.1465 35.321 18.0824 34.9927 18.083H34.9952ZM8.16524 17.918L10.2652 11.068C10.3534 10.8118 10.5208 10.5903 10.7433 10.4356C10.9658 10.281 11.2318 10.2013 11.5027 10.208H28.4777C29.0527 10.208 29.5552 10.5605 29.7127 11.0705L31.8127 17.918C31.8402 18.0005 31.7727 18.083 31.6777 18.083H8.30024C8.20774 18.083 8.13774 18.0005 8.16274 17.918H8.16524ZM6.99024 20.583C8.09024 20.588 8.99024 21.483 8.99024 22.593C8.98826 22.9881 8.86928 23.3738 8.64832 23.7014C8.42736 24.029 8.11432 24.2838 7.7487 24.4336C7.38308 24.5835 6.98126 24.6217 6.59396 24.5434C6.20666 24.4651 5.85123 24.2738 5.57253 23.9937C5.29382 23.7136 5.10433 23.3572 5.02797 22.9695C4.9516 22.5818 4.99179 22.1802 5.14345 21.8154C5.29512 21.4505 5.55146 21.1387 5.88014 20.9194C6.20882 20.7001 6.5951 20.583 6.99024 20.583ZM32.9902 24.583C32.7276 24.583 32.4675 24.5313 32.2249 24.4308C31.9822 24.3303 31.7617 24.1829 31.576 23.9972C31.3903 23.8115 31.243 23.591 31.1425 23.3484C31.042 23.1057 30.9902 22.8457 30.9902 22.583C30.9902 22.3204 31.042 22.0603 31.1425 21.8176C31.243 21.575 31.3903 21.3545 31.576 21.1688C31.7617 20.9831 31.9822 20.8358 32.2249 20.7353C32.4675 20.6347 32.7276 20.583 32.9902 20.583C33.5207 20.583 34.0294 20.7937 34.4044 21.1688C34.7795 21.5439 34.9902 22.0526 34.9902 22.583C34.9902 23.1134 34.7795 23.6222 34.4044 23.9972C34.0294 24.3723 33.5207 24.583 32.9902 24.583Z" fill="black"/>
</svg>
